<?xml version="1.0" standalone="no"?>
<!DOCTYPE svg PUBLIC "-//W3C//DTD SVG 20010904//EN"
 "http://www.w3.org/TR/2001/REC-SVG-20010904/DTD/svg10.dtd">
<svg version="1.0" xmlns="http://www.w3.org/2000/svg"
 width="1060.000000pt" height="1060.000000pt" viewBox="0 0 1060.000000 1060.000000"
 preserveAspectRatio="xMidYMid meet">
<metadata>
Created by potrace 1.16, written by Peter Selinger 2001-2019
</metadata>
<g transform="translate(0.000000,1060.000000) scale(0.100000,-0.100000)"
fill="#000000" stroke="none">
<path d="M6640 8810 c-17 -37 -30 -52 -49 -56 -14 -2 -50 -12 -79 -20 l-52
-15 -45 32 -45 32 -37 -27 c-84 -59 -83 -56 -58 -126 14 -40 14 -43 -10 -74
-13 -18 -31 -48 -39 -68 -14 -33 -20 -37 -66 -43 -58 -8 -65 -17 -74 -97 l-7
-57 49 -25 c46 -23 49 -27 61 -83 7 -32 17 -66 22 -75 7 -13 1 -29 -23 -62
-36 -52 -34 -60 25 -128 l32 -38 49 17 c45 15 51 15 75 0 14 -9 44 -26 66 -38
49 -27 52 -31 60 -90 l7 -46 69 -10 c77 -10 75 -11 108 55 16 31 27 42 44 42
13 0 47 7 75 15 l52 16 46 -31 45 -32 54 41 c30 23 55 48 55 55 0 7 -7 32 -15
55 -14 40 -13 42 15 85 16 23 34 55 39 69 9 22 18 27 60 33 28 4 55 12 60 18
5 6 12 39 16 73 l7 62 -49 27 c-48 27 -49 29 -67 105 l-18 78 29 44 30 44 -29
39 c-16 21 -36 47 -43 57 -12 18 -15 18 -67 1 l-55 -17 -54 37 c-29 20 -59 36
-66 36 -7 0 -17 26 -24 59 l-11 59 -47 6 c-25 4 -58 9 -72 12 -22 4 -28 -1
-49 -46z m120 -212 c127 -37 219 -156 228 -294 7 -109 -26 -194 -106 -270
-111 -105 -307 -112 -431 -14 -71 56 -122 150 -82 150 5 0 21 -19 36 -42 39
-58 72 -87 135 -116 191 -89 411 54 412 267 2 216 -219 359 -419 271 -49 -22
-124 -95 -143 -139 -14 -34 -27 -40 -36 -16 -14 35 78 144 156 186 69 36 164
42 250 17z m-32 -205 c58 -37 78 -121 42 -180 -69 -114 -250 -62 -250 72 0
101 121 164 208 108z"/>
<path d="M6608 8365 c-69 -38 -64 -136 9 -170 65 -31 133 14 133 89 0 71 -80
116 -142 81z"/>
<path d="M8059 8516 c-42 -72 -45 -74 -89 -80 -25 -4 -75 -17 -112 -29 l-66
-23 -68 47 c-37 26 -73 45 -78 42 -18 -10 -78 -55 -122 -91 l-42 -33 26 -79
26 -79 -31 -43 c-17 -24 -43 -68 -58 -98 -15 -30 -28 -56 -30 -58 -1 -1 -39
-9 -84 -19 -68 -13 -82 -19 -85 -37 -12 -65 -26 -156 -26 -172 0 -13 22 -30
75 -57 73 -38 74 -39 81 -85 4 -26 17 -77 29 -114 l21 -68 -43 -62 c-24 -34
-43 -68 -43 -76 0 -14 57 -97 103 -148 l19 -22 78 24 79 24 71 -45 c38 -26 83
-51 100 -56 25 -9 30 -18 40 -67 25 -126 17 -116 106 -129 137 -20 129 -23
171 61 36 73 37 74 82 80 25 3 76 16 114 28 l67 21 70 -47 70 -46 82 61 c46
34 85 63 87 64 1 2 -9 39 -23 83 l-27 79 45 66 c24 36 50 82 57 102 11 29 19
36 48 41 20 3 59 11 86 17 l50 12 12 75 c22 138 23 134 -58 177 l-72 38 -23
92 c-12 51 -27 100 -32 110 -8 13 1 33 39 89 l48 72 -61 81 c-33 44 -65 81
-70 81 -5 0 -43 -10 -84 -22 l-74 -21 -43 30 c-23 17 -67 43 -97 58 -30 15
-56 28 -57 29 -2 1 -10 38 -19 82 -9 43 -17 80 -19 82 -2 3 -179 31 -197 32
-3 0 -26 -33 -49 -74z m140 -317 c75 -17 150 -59 215 -120 71 -66 118 -145
142 -240 30 -117 2 -274 -66 -374 -38 -55 -128 -138 -176 -163 -148 -75 -336
-71 -476 11 -55 32 -149 131 -177 185 -31 62 -3 54 34 -9 57 -97 162 -173 282
-204 232 -60 478 80 549 314 20 68 18 206 -5 273 -29 84 -47 113 -110 178
-139 142 -348 177 -530 89 -74 -37 -165 -123 -201 -192 -14 -26 -28 -47 -32
-47 -30 0 38 113 105 177 57 54 134 98 207 119 55 15 180 17 239 3z m-57 -283
c55 -20 94 -56 117 -108 27 -59 26 -97 0 -159 -52 -121 -206 -154 -305 -66
-49 42 -67 83 -67 147 0 89 51 159 134 185 55 17 75 17 121 1z"/>
<path d="M8030 7869 c-94 -38 -127 -154 -63 -229 68 -82 180 -78 238 7 79 117
-45 274 -175 222z"/>
<path d="M5084 7560 c-63 -13 -122 -40 -699 -315 -626 -299 -936 -445 -941
-445 -2 0 -4 10 -4 23 0 56 36 53 -767 72 -408 9 -759 14 -779 10 -85 -16
-186 -92 -228 -173 -35 -68 -35 -99 -10 -1182 l26 -1065 -120 -305 c-66 -168
-140 -348 -164 -400 -57 -123 -62 -143 -40 -162 22 -20 165 -76 335 -132 205
-67 212 -67 226 -4 6 25 373 661 397 687 2 2 34 -25 71 -60 125 -120 224 -173
361 -193 l85 -12 15 -39 c32 -85 136 -324 174 -400 146 -291 380 -635 591
-867 l79 -88 -856 0 -855 0 6 -87 c3 -49 8 -128 12 -176 l6 -88 1037 -4 1038
-4 112 -84 c299 -223 692 -447 863 -492 75 -19 174 -19 250 0 169 44 565 270
860 490 l110 82 1520 8 c836 4 1522 8 1525 10 3 2 3 79 0 172 l-5 168 -142 3
-143 3 0 212 c0 116 5 498 10 847 28 1742 39 2594 35 2598 -3 3 -17 0 -31 -7
-14 -6 -53 -14 -85 -18 l-59 -6 0 -41 c0 -83 -41 -2783 -48 -3148 -7 -362 -8
-378 -28 -405 l-21 -28 -1068 -3 -1067 -2 56 60 c250 271 509 663 669 1015
229 502 343 944 409 1590 16 153 16 862 0 960 -16 98 -70 203 -143 276 -53 53
-84 72 -275 164 -118 58 -216 105 -218 105 -2 0 -70 32 -152 71 -82 39 -185
88 -229 109 -93 44 -107 50 -825 392 -300 143 -574 271 -609 285 -72 27 -198
38 -267 23z m478 -285 c256 -122 288 -139 288 -156 0 -28 -49 -10 -289 103
-249 118 -279 137 -254 161 9 10 -11 18 255 -108z m1179 -559 c393 -187 738
-355 767 -374 67 -44 116 -115 138 -202 14 -53 17 -121 18 -380 1 -309 1 -315
-19 -315 -19 0 -20 9 -26 330 -6 310 -8 333 -29 389 -34 89 -89 137 -228 203
-64 30 -295 140 -512 243 -217 103 -496 236 -620 294 -123 59 -229 111 -234
116 -10 10 11 43 24 38 4 -2 328 -156 721 -342z m-4026 24 c242 -6 469 -12
505 -13 l65 -2 -70 -34 c-433 -207 -451 -217 -512 -278 -73 -73 -128 -178
-143 -273 -6 -36 -13 -188 -17 -337 -3 -150 -10 -273 -15 -273 -13 0 -8 -142
7 -185 8 -22 20 -104 26 -183 l11 -142 -33 -65 c-36 -71 -39 -70 -58 20 -7 33
-19 67 -26 75 -7 8 -25 59 -41 112 l-28 97 27 21 c32 25 34 56 10 107 -39 84
-173 73 -173 -14 0 -24 -52 -46 -106 -43 -35 1 -45 -3 -68 -30 -28 -34 -28
-59 1 -92 13 -15 13 -19 -1 -40 -22 -31 -20 -64 4 -88 11 -11 20 -27 20 -36 0
-8 4 -23 10 -33 7 -14 -2 -45 -35 -127 -48 -121 -37 -114 -146 -99 -44 6 -64
4 -89 -9 -18 -9 -34 -16 -35 -16 -2 0 -5 92 -31 1140 -18 695 -18 702 32 768
61 79 111 93 309 87 88 -3 358 -10 600 -15z m2498 -580 c138 -17 277 -38 307
-46 197 -56 362 -221 424 -423 18 -59 20 -101 23 -421 l4 -355 50 -5 c43 -5
57 -12 85 -43 41 -45 40 36 13 -757 -23 -674 -22 -670 -78 -703 -27 -16 -98
-17 -918 -17 -977 0 -915 -4 -948 60 -13 25 -15 130 -15 753 0 719 0 724 21
751 27 35 70 56 113 56 l34 0 4 338 c4 288 7 345 22 392 55 169 169 306 317
379 79 39 184 68 257 70 17 1 146 -13 285 -29z m-2583 -1507 c0 -10 16 -88 35
-173 20 -85 38 -168 42 -185 l6 -30 -28 25 c-36 33 -108 134 -135 191 l-23 47
44 71 c45 72 59 84 59 54z"/>
<path d="M4842 5973 c-120 -28 -235 -130 -284 -253 -22 -52 -23 -71 -26 -391
l-3 -335 428 -23 c235 -12 489 -27 563 -32 74 -5 161 -9 193 -9 l57 0 0 303
c0 176 -5 328 -11 362 -11 59 -44 134 -82 189 -31 43 -133 114 -190 131 -51
15 -507 76 -557 74 -14 0 -53 -7 -88 -16z"/>
<path d="M5053 4654 c-53 -19 -128 -85 -156 -138 -17 -33 -22 -58 -22 -126 0
-90 17 -139 71 -203 31 -37 40 -73 26 -111 -6 -17 -34 -97 -63 -178 -56 -159
-57 -181 -14 -224 24 -24 26 -24 226 -24 170 0 205 3 229 17 54 32 53 71 -10
253 -27 80 -50 158 -50 173 0 19 14 42 44 75 70 75 96 133 96 212 0 110 -34
179 -120 241 -68 49 -172 63 -257 33z"/>
<path d="M1527 2503 c-3 -5 -7 -62 -11 -128 -4 -66 -10 -141 -13 -167 l-6 -48
140 0 140 0 -38 168 c-21 92 -39 170 -39 175 0 4 -38 7 -84 7 -47 0 -87 -3
-89 -7z"/>
<path d="M1925 1618 c9 -37 8 -60 -9 -118 -19 -66 -20 -102 -4 -118 15 -15
414 -17 423 -2 7 12 -132 104 -242 160 -64 33 -79 45 -83 68 -5 24 -10 27 -48
30 -40 3 -42 2 -37 -20z"/>
<path d="M1340 1593 c0 -16 -6 -48 -14 -73 -8 -25 -15 -70 -17 -100 l-4 -55
138 -3 139 -3 -7 23 c-14 45 -66 127 -100 157 -23 20 -35 39 -35 56 0 23 -3
25 -50 25 -48 0 -50 -1 -50 -27z"/>
</g>
</svg>
